<svg class="h-32" style="height:60px" version="1.1" id="Layer_1" xmlns="http://www.w3.org/2000/svg" xmlns:xlink="http://www.w3.org/1999/xlink" x="0px" y="0px"
	 width="100%" viewBox="0 0 792 800" enable-background="new 0 0 792 800" xml:space="preserve">
<!--<path fill="#fff" opacity="1.000000" stroke="none"-->
<!--	d="-->
<!--M793.000000,299.000000-->
<!--	C793.000000,466.666656 793.000000,633.833313 793.000000,801.000000-->
<!--	C529.000000,801.000000 265.000000,801.000000 1.000000,801.000000-->
<!--	C1.000000,534.333313 1.000000,267.666656 1.000000,1.000000-->
<!--	C265.000000,1.000000 529.000000,1.000000 793.000000,1.000000-->
<!--	C793.000000,100.166664 793.000000,199.333328 793.000000,299.000000-->
<!--M476.709961,45.024914-->
<!--	C467.456909,52.203876 467.606812,51.945763 459.831177,47.429985-->
<!--	C441.666962,36.880981 422.210327,31.161104 401.155060,35.153568-->
<!--	C383.555756,38.490723 367.330811,45.150249 355.152863,59.253082-->
<!--	C353.817780,60.799145 351.913269,61.982094 350.067352,62.935562-->
<!--	C343.109283,66.529617 336.052155,69.931381 329.063232,73.466621-->
<!--	C326.845673,74.588341 325.342072,75.220619 322.582184,73.401329-->
<!--	C302.133850,59.922058 279.943329,54.420261 255.577133,59.981937-->
<!--	C241.995148,63.082073 229.546921,68.486046 219.389633,78.183899-->
<!--	C202.708832,94.110222 196.611389,114.640564 195.070587,136.837708-->
<!--	C194.090408,150.958267 196.377106,164.828735 200.221649,178.997665-->
<!--	C198.103546,178.997665 196.321548,178.997665 194.539566,178.997665-->
<!--	C159.707916,178.997665 124.876114,178.948135 90.044861,179.064667-->
<!--	C86.004196,179.078171 81.898071,179.701904 77.939751,180.575134-->
<!--	C62.841221,183.905975 50.236759,191.385605 40.154377,203.265442-->
<!--	C30.163071,215.037964 24.107723,228.444855 24.084864,243.860931-->
<!--	C23.921516,354.022003 23.985693,464.183472 24.048998,574.344788-->
<!--	C24.051142,578.075989 24.377840,581.915894 25.285330,585.520874-->
<!--	C33.441399,617.920288 60.791477,638.928650 93.721474,638.947205-->
<!--	C290.878510,639.058167 488.035645,639.010986 685.192749,638.953369-->
<!--	C690.268433,638.951904 695.509460,638.901489 700.389099,637.709778-->
<!--	C716.637268,633.741882 730.677002,626.164001 741.183960,612.486267-->
<!--	C750.376648,600.519470 755.868164,587.237366 755.896179,572.317749-->
<!--	C756.095215,466.156616 756.016479,359.994904 755.959839,253.833420-->
<!--	C755.957092,248.585861 755.399963,243.333755 754.992432,238.092194-->
<!--	C753.996155,225.280090 748.752869,213.999924 740.698303,204.420609-->
<!--	C726.412354,187.430206 707.831543,178.923141 685.440308,178.977783-->
<!--	C653.442078,179.055878 621.443481,178.997665 589.445068,178.997665-->
<!--	C587.694397,178.997665 585.943726,178.997665 583.567688,178.997665-->
<!--	C584.205017,177.787643 584.473816,177.249527 584.766907,176.724960-->
<!--	C593.598511,160.917969 597.974182,143.708267 598.743103,125.861710-->
<!--	C599.174377,115.850746 597.843079,105.555130 595.824402,95.690941-->
<!--	C591.668823,75.385452 581.594421,58.324501 563.595947,47.293991-->
<!--	C547.086731,37.176140 529.057800,32.727650 509.382721,34.821545-->
<!--	C497.893829,36.044231 487.548737,39.813522 476.709961,45.024914-->
<!--M528.321533,678.953857-->
<!--	C527.371765,678.655090 526.429749,678.124756 525.471069,678.092773-->
<!--	C513.528748,677.694397 501.584625,677.287964 489.638519,677.191040-->
<!--	C488.769470,677.184021 487.165863,679.533386 487.120605,680.829651-->
<!--	C486.870728,687.982544 486.951630,695.149109 487.024292,702.309937-->
<!--	C487.048309,704.676392 486.491821,706.411438 483.737030,705.961548-->
<!--	C478.509705,705.107971 477.371002,707.761353 477.972870,712.224609-->
<!--	C478.149323,713.533203 478.143250,714.904358 477.972900,716.214600-->
<!--	C477.495880,719.884033 478.868500,721.592407 482.674042,721.003052-->
<!--	C486.364990,720.431396 487.144867,722.338318 487.056824,725.631470-->
<!--	C486.869995,732.621521 487.114471,739.622681 486.948334,746.613831-->
<!--	C486.874878,749.703918 487.620087,751.135986 491.079712,751.065430-->
<!--	C500.569000,750.871765 510.082886,751.358826 519.552490,750.885437-->
<!--	C527.348511,750.495789 534.219421,747.595032 539.499512,741.268494-->
<!--	C547.717957,731.421265 548.854370,719.718567 547.774231,707.908875-->
<!--	C546.631531,695.415771 542.244263,684.215576 528.321533,678.953857-->
<!--M636.631409,677.638489-->
<!--	C636.751221,674.157104 636.934753,670.675903 636.947937,667.194092-->
<!--	C636.951416,666.280884 636.482544,664.595398 636.135864,664.570190-->
<!--	C632.524597,664.307983 628.860046,664.042969 625.299927,664.490906-->
<!--	C624.657776,664.571716 624.131958,667.876343 624.053528,669.713928-->
<!--	C623.803955,675.564636 622.499023,676.942078 616.536865,676.995544-->
<!--	C613.707031,677.020935 610.856750,677.212524 608.051575,676.948486-->
<!--	C604.202881,676.586182 602.826782,677.830994 602.905579,681.913635-->
<!--	C603.159424,695.060364 603.231323,708.221680 602.854431,721.362488-->
<!--	C602.745911,725.147644 601.668640,729.384705 599.652893,732.527893-->
<!--	C596.281189,737.785522 589.770386,739.127563 583.643433,737.039307-->
<!--	C578.118347,735.156128 575.098083,730.581116 575.030151,723.375854-->
<!--	C574.921875,711.890015 575.000244,700.402405 575.000061,688.915588-->
<!--	C574.999817,676.405334 575.003723,676.517273 562.471313,676.932068-->
<!--	C558.876953,677.051025 557.938843,678.582520 557.960510,681.846863-->
<!--	C558.054321,695.996704 557.611511,710.161804 558.130249,724.293213-->
<!--	C558.511353,734.672363 562.198730,743.633606 572.372742,748.766174-->
<!--	C580.227356,752.728577 588.651917,753.020935 596.740173,751.668335-->
<!--	C610.284485,749.403320 619.950012,739.020264 619.124512,725.042114-->
<!--	C618.497498,714.424683 619.075806,703.739685 618.951904,693.086609-->
<!--	C618.918030,690.170715 619.717041,689.064941 622.852173,688.900757-->
<!--	C629.602234,688.547241 634.494751,685.328857 636.631409,677.638489-->
<!--M181.452957,677.754883-->
<!--	C175.884720,677.169922 170.323502,676.177246 164.746826,676.081238-->
<!--	C151.330414,675.850342 138.888916,686.104919 137.148178,699.365173-->
<!--	C136.052658,707.710205 135.394119,716.336121 136.249405,724.660339-->
<!--	C137.466461,736.505737 143.033218,746.218445 155.129166,750.484680-->
<!--	C161.419006,752.703186 167.788132,753.366089 174.616333,752.159668-->
<!--	C186.164948,750.119202 194.917130,744.445251 197.784973,733.142578-->
<!--	C199.902344,724.797546 199.700760,715.785950 199.920288,707.055908-->
<!--	C200.255508,693.726074 194.702362,683.680176 181.452957,677.754883-->
<!--M351.385101,749.745728-->
<!--	C353.675171,750.163818 355.966492,750.946167 358.255127,750.938477-->
<!--	C369.646271,750.900513 367.400299,752.559631 370.535004,741.948120-->
<!--	C373.181061,732.990723 373.212524,733.000000 382.478943,733.000000-->
<!--	C385.308807,733.000000 388.161957,733.229431 390.962891,732.944885-->
<!--	C394.906219,732.544312 396.666412,734.042480 397.259155,738.003357-->
<!--	C397.768982,741.410034 399.003418,744.746033 400.250885,747.984802-->
<!--	C400.706970,749.169128 402.077087,750.773621 403.108490,750.833374-->
<!--	C408.190094,751.127319 413.297974,750.966980 418.843475,750.966980-->
<!--	C418.352295,749.025696 418.108185,747.750305 417.707977,746.526001-->
<!--	C411.679138,728.081604 405.672119,709.630066 399.571869,691.209290-->
<!--	C394.743866,676.630310 394.691498,676.765808 379.295410,676.903564-->
<!--	C376.111542,676.932129 374.995300,678.249878 374.123016,680.899231-->
<!--	C366.645874,703.608704 359.086517,726.291016 351.385101,749.745728-->
<!--M118.042618,681.435547-->
<!--	C108.249168,674.389099 97.485512,673.474915 86.360306,677.100769-->
<!--	C73.200546,681.389648 66.728348,693.825378 71.066872,705.743469-->
<!--	C74.476410,715.109741 82.676369,717.787903 91.221420,720.009399-->
<!--	C96.497406,721.381165 101.805458,722.726624 106.926270,724.565308-->
<!--	C110.582047,725.877930 111.604355,728.746887 110.291092,732.660950-->
<!--	C108.749939,737.254272 105.138870,738.623474 101.075462,738.919800-->
<!--	C95.011429,739.362183 89.053772,739.076904 85.379425,732.851501-->
<!--	C84.496246,731.355103 83.023811,729.397949 81.597717,729.189514-->
<!--	C78.009735,728.665039 74.278328,728.838562 70.639450,729.146301-->
<!--	C69.739197,729.222412 68.128784,731.047607 68.277344,731.777100-->
<!--	C69.486092,737.712708 71.389488,743.422302 76.878632,746.921082-->
<!--	C88.731163,754.475769 101.187775,754.788208 113.903008,749.495972-->
<!--	C119.430435,747.195435 124.395950,743.522339 125.849510,737.573853-->
<!--	C129.589874,722.267029 126.181305,712.830078 110.141327,708.056091-->
<!--	C104.278488,706.311096 98.143356,705.440002 92.348808,703.517944-->
<!--	C86.645721,701.626282 85.036255,695.197632 89.039871,691.682739-->
<!--	C93.933289,687.386597 107.144020,687.401245 110.127945,695.645569-->
<!--	C110.603035,696.958191 112.090355,698.712830 113.247902,698.823975-->
<!--	C117.309425,699.214050 121.431328,698.975342 125.777809,698.975342-->
<!--	C126.480095,691.403625 123.990700,686.022461 118.042618,681.435547-->
<!--M694.103882,689.642700-->
<!--	C687.231018,678.676208 676.926697,675.497437 664.582214,675.907593-->
<!--	C651.442932,676.344116 638.945923,686.073730 637.164307,699.027771-->
<!--	C636.062012,707.042053 635.610168,715.301758 636.203308,723.352844-->
<!--	C636.912781,732.981018 640.300659,741.775818 649.064148,747.477905-->
<!--	C657.318909,752.849060 666.516724,753.065918 675.545227,751.469666-->
<!--	C685.186768,749.765015 692.574524,744.231445 695.986450,734.522827-->
<!--	C699.080078,725.719604 697.844299,724.235046 688.727844,723.902710-->
<!--	C683.979248,723.729614 681.067017,724.426025 679.973877,729.898010-->
<!--	C679.029419,734.626221 675.001343,737.375549 670.199097,737.874512-->
<!--	C665.109009,738.403564 659.765564,737.928650 657.026611,732.851074-->
<!--	C650.608765,720.953125 651.264282,708.517639 656.257324,696.444946-->
<!--	C658.581848,690.824707 665.166748,689.132935 671.167664,690.507751-->
<!--	C678.282532,692.137817 680.114746,697.683105 681.531616,703.617554-->
<!--	C686.706360,703.617554 691.600952,703.617554 697.793762,703.617554-->
<!--	C696.604187,698.726990 695.573914,694.491394 694.103882,689.642700-->
<!--M335.000000,734.498047-->
<!--	C335.000000,723.841736 335.000000,713.185425 335.000000,702.529114-->
<!--	C335.000000,691.000061 335.000549,691.068726 346.418213,690.979187-->
<!--	C356.269775,690.901917 354.668427,692.479431 355.088776,682.132935-->
<!--	C355.264099,677.817566 353.687805,676.853394 349.668945,676.915955-->
<!--	C335.685913,677.133606 321.695953,676.875854 307.711456,677.039368-->
<!--	C296.591187,677.169312 298.196350,674.584717 297.963989,687.238342-->
<!--	C297.912964,690.016052 298.861969,691.161560 301.702820,691.036865-->
<!--	C305.358856,690.876404 309.047668,691.241211 312.685028,690.935486-->
<!--	C316.747589,690.593933 318.173676,691.876648 318.096375,696.151794-->
<!--	C317.840668,710.300049 317.999969,724.455872 318.000000,738.608765-->
<!--	C318.000031,751.973816 317.995605,751.903625 331.556519,751.056152-->
<!--	C334.143188,750.894531 335.103638,750.027893 335.027374,747.483765-->
<!--	C334.907684,743.491333 334.998383,739.492493 335.000000,734.498047-->
<!--M266.000336,703.500000-->
<!--	C266.000336,694.748901 266.000336,685.997803 266.000336,677.000000-->
<!--	C260.984283,677.000000 256.668732,676.877563 252.362518,677.026245-->
<!--	C244.062790,677.312683 239.102371,684.195068 232.297150,687.460144-->
<!--	C231.971558,687.616394 232.019150,688.701843 232.016190,689.355103-->
<!--	C231.994583,694.121033 232.004578,698.887207 232.004578,704.684204-->
<!--	C238.055222,700.864868 243.307877,697.549194 249.196564,693.832092-->
<!--	C249.196564,713.364502 249.196564,731.957886 249.196564,750.683105-->
<!--	C254.903442,750.683105 260.284332,750.683105 266.000336,750.683105-->
<!--	C266.000336,735.078979 266.000336,719.789490 266.000336,703.500000-->
<!--M439.339111,750.999878-->
<!--	C443.150574,751.599060 444.103271,749.852539 444.073853,746.207886-->
<!--	C443.916779,726.745728 443.999969,707.281555 444.000000,687.818115-->
<!--	C444.000031,676.859863 443.997101,677.058533 432.890228,676.896790-->
<!--	C428.778931,676.836914 427.893860,678.266113 427.925354,682.063477-->
<!--	C428.086823,701.525574 428.000031,720.989807 428.000000,740.453247-->
<!--	C428.000000,751.000000 428.000000,751.000000 439.339111,750.999878-->
<!--M160.701752,657.858093-->
<!--	C156.776276,661.777100 152.850784,665.696167 148.051880,670.487122-->
<!--	C154.815979,671.065491 160.124802,672.448853 164.393631,667.385437-->
<!--	C166.392746,665.014160 169.001617,663.675171 171.388153,666.943604-->
<!--	C175.831985,673.029602 181.815964,670.615967 187.592667,670.292725-->
<!--	C184.539307,666.672180 181.196243,663.609436 177.959747,660.437927-->
<!--	C172.728760,655.311829 168.201523,654.443115 160.701752,657.858093-->
<!--M382.557831,756.753052-->
<!--	C379.211304,758.846313 376.152710,761.205811 377.473694,765.802979-->
<!--	C378.747711,770.236877 382.911377,772.790161 386.890137,771.874207-->
<!--	C391.053619,770.915771 393.735657,766.697144 392.913727,762.399658-->
<!--	C392.062714,757.950195 388.626617,755.821350 382.557831,756.753052-->
<!--z"/>-->
<path fill="#FEFEFE" opacity="1.000000" stroke="none"
	d="
M477.092346,44.989799
	C487.548737,39.813522 497.893829,36.044231 509.382721,34.821545
	C529.057800,32.727650 547.086731,37.176140 563.595947,47.293991
	C581.594421,58.324501 591.668823,75.385452 595.824402,95.690941
	C597.843079,105.555130 599.174377,115.850746 598.743103,125.861710
	C597.974182,143.708267 593.598511,160.917969 584.766907,176.724960
	C584.473816,177.249527 584.205017,177.787643 583.567688,178.997665
	C585.943726,178.997665 587.694397,178.997665 589.445068,178.997665
	C621.443481,178.997665 653.442078,179.055878 685.440308,178.977783
	C707.831543,178.923141 726.412354,187.430206 740.698303,204.420609
	C748.752869,213.999924 753.996155,225.280090 754.992432,238.092194
	C755.399963,243.333755 755.957092,248.585861 755.959839,253.833420
	C756.016479,359.994904 756.095215,466.156616 755.896179,572.317749
	C755.868164,587.237366 750.376648,600.519470 741.183960,612.486267
	C730.677002,626.164001 716.637268,633.741882 700.389099,637.709778
	C695.509460,638.901489 690.268433,638.951904 685.192749,638.953369
	C488.035645,639.010986 290.878510,639.058167 93.721474,638.947205
	C60.791477,638.928650 33.441399,617.920288 25.285330,585.520874
	C24.377840,581.915894 24.051142,578.075989 24.048998,574.344788
	C23.985693,464.183472 23.921516,354.022003 24.084864,243.860931
	C24.107723,228.444855 30.163071,215.037964 40.154377,203.265442
	C50.236759,191.385605 62.841221,183.905975 77.939751,180.575134
	C81.898071,179.701904 86.004196,179.078171 90.044861,179.064667
	C124.876114,178.948135 159.707916,178.997665 194.539566,178.997665
	C196.321548,178.997665 198.103546,178.997665 200.221649,178.997665
	C196.377106,164.828735 194.090408,150.958267 195.070587,136.837708
	C196.611389,114.640564 202.708832,94.110222 219.389633,78.183899
	C229.546921,68.486046 241.995148,63.082073 255.577133,59.981937
	C279.943329,54.420261 302.133850,59.922058 322.582184,73.401329
	C325.342072,75.220619 326.845673,74.588341 329.063232,73.466621
	C336.052155,69.931381 343.109283,66.529617 350.067352,62.935562
	C351.913269,61.982094 353.817780,60.799145 355.152863,59.253082
	C367.330811,45.150249 383.555756,38.490723 401.155060,35.153568
	C422.210327,31.161104 441.666962,36.880981 459.831177,47.429985
	C467.606812,51.945763 467.456909,52.203876 477.092346,44.989799
M359.680145,74.832909
	C346.883667,78.317337 336.189301,85.611435 326.556610,93.271545
	C318.192871,88.210548 310.580078,82.746704 302.266907,78.733643
	C276.926941,66.501106 244.622604,72.133301 226.610245,91.614807
	C213.511963,105.781425 209.766052,123.361732 209.188004,141.929367
	C208.435013,166.116516 217.134796,187.172607 230.613373,206.698700
	C248.156815,232.113464 269.549530,254.009659 292.461731,274.489044
	C303.230957,284.114777 314.436218,293.252686 325.570282,302.719116
	C354.725067,279.907349 381.424316,255.651855 405.564331,228.313675
	C424.569427,247.518570 444.673676,265.468933 466.324097,281.958801
	C468.119324,280.623688 469.780212,279.528778 471.283264,278.248596
	C483.965668,267.446564 496.965424,256.986206 509.206299,245.703354
	C531.683838,224.985092 552.387207,202.681534 568.547607,176.462921
	C580.882202,156.451187 585.737061,134.886383 584.019775,111.528748
	C580.349060,61.598953 532.359802,33.937214 487.490662,56.260208
	C480.083496,59.945358 473.299408,64.882889 465.952728,69.410927
	C462.442902,66.934471 458.588928,64.025261 454.550995,61.398884
	C436.794525,49.849663 417.741058,45.710293 396.858887,51.009388
	C381.902649,54.804695 369.867157,62.754776 359.680145,74.832909
M56.933430,550.500000
	C56.933475,450.507385 56.928078,350.514801 56.958649,250.522202
	C56.959610,247.372238 56.945633,244.140457 57.594273,241.086044
	C61.278782,223.735870 75.768509,212.161942 93.977470,212.121246
	C131.974762,212.036362 169.972397,212.094086 207.969879,212.093231
	C209.889893,212.093185 211.809891,212.093231 214.578568,212.093231
	C211.752182,206.547379 209.135315,201.952789 207.050766,197.128220
	C205.712067,194.029831 203.900238,193.110931 200.589554,193.122391
	C165.092316,193.245331 129.594040,193.087067 94.097000,193.235153
	C61.842533,193.369720 37.954674,217.370178 37.936192,249.651276
	C37.875317,355.977509 37.872654,462.303864 37.937889,568.630127
	C37.957947,601.324646 61.780666,624.942505 94.603416,624.946838
	C291.423706,624.972778 488.244019,624.973938 685.064331,624.945923
	C717.981384,624.941223 741.869934,601.007202 741.873779,568.178223
	C741.886292,462.185242 741.885803,356.192230 741.874023,250.199234
	C741.870422,217.778915 718.459961,193.575592 686.160461,193.278336
	C650.499146,192.950134 614.832520,193.193832 579.168213,193.223007
	C577.882263,193.224045 575.975586,193.119720 575.409485,193.864090
	C571.064209,199.577667 566.979553,205.489410 562.277283,212.093246
	C565.538818,212.093246 567.528564,212.093231 569.518250,212.093246
	C608.015686,212.093735 646.513245,212.050125 685.010620,212.111633
	C707.299866,212.147232 722.902893,227.683960 722.907837,249.807938
	C722.931458,356.134216 722.934753,462.460510 722.904419,568.786804
	C722.898254,590.387573 707.248840,605.986084 685.663513,606.022461
	C661.665161,606.062927 637.666687,606.033447 613.668274,606.033386
	C440.513062,606.033020 267.357880,606.038452 94.202675,606.023682
	C75.252350,606.022034 60.047802,593.979492 57.427216,575.956543
	C56.263016,567.949707 57.038372,559.660828 56.933430,550.500000
M122.596207,410.564911
	C134.753571,410.564880 146.911209,410.618347 159.068222,410.552856
	C179.793823,410.441254 197.103119,402.953613 209.762390,386.207520
	C220.833588,371.562225 224.170624,354.707489 223.044235,336.683472
	C220.852051,301.605133 194.143814,276.377411 159.041306,276.344757
	C145.551697,276.332184 132.062027,276.335297 118.572433,276.352295
	C116.954689,276.354340 115.337112,276.488434 113.514008,276.570587
	C113.514008,321.294220 113.514008,365.658478 113.514008,410.564880
	C116.378998,410.564880 119.005463,410.564880 122.596207,410.564911
M488.448914,413.893066
	C507.927338,413.117523 526.174561,399.217255 533.056213,379.912415
	C539.506042,361.819000 533.337585,340.103546 517.678162,325.949402
	C511.352417,320.231781 504.059082,316.172363 495.547119,315.218719
	C485.317383,314.072662 475.292755,314.985474 467.956635,320.071198
	C456.563782,315.624207 446.158325,318.652832 436.531616,317.766785
	C436.531616,339.622406 436.531616,360.761719 436.531616,381.901031
	C436.531616,403.132629 436.531616,424.364227 436.531616,445.585144
	C446.772430,445.585144 456.993378,445.585144 467.151093,445.585144
	C467.151093,433.536926 467.151093,421.837158 467.151093,410.600616
	C474.149078,411.725037 480.843170,412.800629 488.448914,413.893066
M367.736694,411.897339
	C384.293274,416.184326 399.376526,413.690186 412.664337,402.376923
	C433.068237,385.004944 436.835358,358.804260 422.049866,336.407440
	C407.856873,314.908112 385.627289,309.156982 362.040100,320.882050
	C358.913940,317.439911 341.204254,316.054199 331.508179,318.387238
	C331.508179,360.819000 331.508179,403.173523 331.508179,445.548218
	C342.031494,445.548218 352.395203,445.548218 362.388306,445.548218
	C362.388306,433.545868 362.388306,421.931519 362.388306,410.008423
	C363.893738,410.556458 365.416687,411.110870 367.736694,411.897339
M260.190979,554.876343
	C261.402069,554.719727 262.613159,554.563171 263.072937,554.503662
	C263.072937,545.279968 263.072876,536.638245 263.072968,527.996460
	C263.073090,519.168213 263.058105,510.339905 263.077881,501.511658
	C263.097504,492.744995 269.864319,486.031403 278.539490,486.132416
	C286.965637,486.230530 292.238770,491.948151 292.247925,501.071899
	C292.265808,518.846741 292.253143,536.621582 292.253143,554.506348
	C301.761017,554.506348 311.618225,554.506348 320.778961,554.506348
	C320.778961,546.654297 320.779053,539.179321 320.778931,531.704346
	C320.778748,518.711792 320.879669,505.718292 320.753815,492.726959
	C320.576813,474.453003 312.372955,462.989136 296.499329,460.513184
	C289.984497,459.496979 282.982025,460.533722 276.364532,461.625549
	C271.927643,462.357544 267.777710,464.828583 263.072937,466.690277
	C263.072937,463.909851 263.073456,461.307404 263.072815,458.704926
	C263.070526,449.376953 263.240051,440.043274 262.929962,430.725555
	C262.862396,428.695740 261.171967,425.051117 260.070068,424.989410
	C251.492004,424.509338 242.875046,424.724091 234.589844,424.724091
	C234.589844,468.440125 234.589844,511.374451 234.589844,554.876526
	C242.678604,554.876526 250.966293,554.876526 260.190979,554.876343
M315.388916,394.861176
	C321.884033,386.872742 325.445312,377.761200 326.269958,367.477142
	C328.016754,345.693237 316.374268,326.206451 296.501831,317.934448
	C275.805481,309.319458 251.701065,314.745056 237.674622,331.175629
	C223.953918,347.248077 222.075439,371.383362 233.285004,389.475800
	C251.376984,418.676605 293.664276,420.375824 315.388916,394.861176
M351.576782,549.971191
	C372.879028,562.100403 396.984619,559.070923 413.092743,541.957703
	C407.866547,535.864807 402.610382,529.736938 397.236023,523.471313
	C388.973083,528.711304 381.147461,534.939148 370.393921,527.529724
	C388.264771,513.353943 405.269623,499.865112 422.317108,486.342468
	C413.435028,468.186707 399.220612,459.041107 379.743042,458.203369
	C357.253082,457.236023 336.884430,471.874329 329.771606,493.772522
	C322.928101,514.841553 330.972900,536.027527 351.576782,549.971191
M619.561279,353.050873
	C624.101807,349.452972 628.642395,345.855042 633.078857,342.339600
	C625.775452,323.170837 605.179565,311.672577 583.132690,314.144531
	C561.120972,316.612549 541.708557,335.671356 538.958191,357.514496
	C536.156433,379.766205 549.346252,401.447327 570.731628,409.742706
	C589.768066,417.126953 614.061462,411.545105 624.043945,397.382263
	C618.865906,391.398651 613.663147,385.386597 608.527466,379.451965
	C590.713440,388.696167 587.458984,389.116241 582.337097,382.551300
	C594.557068,372.871429 606.783569,363.186340 619.561279,353.050873
M486.097290,475.486969
	C486.097290,479.255981 486.097290,483.024994 486.097290,487.304749
	C496.075562,487.304749 505.419678,487.304749 515.441895,487.304749
	C501.704346,510.091705 488.383026,532.188293 474.853973,554.629517
	C505.083130,554.629517 534.350708,554.629517 563.805725,554.629517
	C563.805725,546.161316 563.805725,537.941956 563.805725,529.270996
	C550.123047,529.270996 536.723328,529.270996 522.348633,529.270996
	C537.147949,506.500214 551.452881,484.490112 565.956421,462.174377
	C538.767090,462.174377 512.545288,462.174377 486.097290,462.174377
	C486.097290,466.537048 486.097290,470.517487 486.097290,475.486969
M667.092957,401.203125
	C667.076111,363.715546 667.065125,326.227966 667.025757,288.740417
	C667.023621,286.754517 667.098022,284.671692 666.530518,282.819763
	C666.192322,281.715912 664.688965,280.215546 663.677124,280.190308
	C655.224365,279.979828 646.764099,280.070740 638.455566,280.070740
	C638.455566,323.819977 638.455566,367.046570 638.455566,410.377380
	C648.244751,410.377380 657.973694,410.377380 667.986145,410.377380
	C667.670898,407.394348 667.392822,404.763031 667.092957,401.203125
M456.937592,543.405884
	C456.943604,530.094971 456.810272,516.782104 457.001190,503.473877
	C457.145477,493.417114 463.213135,488.201019 473.171814,489.118988
	C474.937164,489.281708 476.692444,489.553619 478.915833,489.833466
	C478.915833,479.900970 478.915833,470.379517 478.915833,459.552704
	C470.457855,461.648804 462.595520,463.597290 454.462555,465.612823
	C453.169861,464.604706 451.175934,461.751495 448.943024,461.550262
	C442.065521,460.930481 435.096680,461.324310 428.366058,461.324310
	C428.366058,493.019867 428.366058,523.709106 428.366058,554.874939
	C436.907837,554.874939 445.522217,554.887146 454.136475,554.860168
	C455.262024,554.856628 456.386902,554.652222 457.563873,554.535706
	C457.346130,550.987366 457.143097,547.678650 456.937592,543.405884
M583.300598,458.160339
	C583.482544,459.141815 583.626648,460.132080 583.852173,461.103424
	C586.384277,472.005859 596.556091,479.164795 607.684937,477.889618
	C618.926453,476.601471 627.151550,467.450958 627.155701,456.228302
	C627.160095,444.230560 617.822327,434.791504 605.675415,434.514923
	C592.885437,434.223785 583.622803,443.636169 583.300598,458.160339
z"/>
<path fill="#050708" opacity="1.000000" stroke="none"
	d="
M528.704468,679.045410
	C542.244263,684.215576 546.631531,695.415771 547.774231,707.908875
	C548.854370,719.718567 547.717957,731.421265 539.499512,741.268494
	C534.219421,747.595032 527.348511,750.495789 519.552490,750.885437
	C510.082886,751.358826 500.569000,750.871765 491.079712,751.065430
	C487.620087,751.135986 486.874878,749.703918 486.948334,746.613831
	C487.114471,739.622681 486.869995,732.621521 487.056824,725.631470
	C487.144867,722.338318 486.364990,720.431396 482.674042,721.003052
	C478.868500,721.592407 477.495880,719.884033 477.972900,716.214600
	C478.143250,714.904358 478.149323,713.533203 477.972870,712.224609
	C477.371002,707.761353 478.509705,705.107971 483.737030,705.961548
	C486.491821,706.411438 487.048309,704.676392 487.024292,702.309937
	C486.951630,695.149109 486.870728,687.982544 487.120605,680.829651
	C487.165863,679.533386 488.769470,677.184021 489.638519,677.191040
	C501.584625,677.287964 513.528748,677.694397 525.471069,678.092773
	C526.429749,678.124756 527.371765,678.655090 528.704468,679.045410
M513.211060,736.999390
	C525.857117,736.704651 529.359253,727.887939 529.950317,720.427063
	C530.233459,716.852905 530.114319,713.233704 529.981506,709.642151
	C529.506470,696.795715 523.693665,691.173767 511.622559,690.025024
	C503.091919,689.213135 503.000244,689.313049 503.000153,697.796814
	C503.000122,699.292419 503.105835,700.796936 502.979614,702.281799
	C502.740692,705.092529 503.937683,706.276184 506.733185,706.015808
	C507.886383,705.908386 509.076385,706.133118 510.218109,705.976685
	C514.979187,705.324280 516.586243,707.575256 516.018372,712.021667
	C515.893127,713.002747 515.867920,714.034546 516.022400,715.007080
	C516.780457,719.780090 514.901672,721.378113 510.048492,721.105713
	C503.020081,720.711426 503.002838,721.018799 503.000000,727.874939
	C502.996216,736.999939 502.996216,736.999939 513.211060,736.999390
z"/>
<path fill="#" opacity="1.000000" stroke="none"
	d="
M636.470154,678.023071
	C634.494751,685.328857 629.602234,688.547241 622.852173,688.900757
	C619.717041,689.064941 618.918030,690.170715 618.951904,693.086609
	C619.075806,703.739685 618.497498,714.424683 619.124512,725.042114
	C619.950012,739.020264 610.284485,749.403320 596.740173,751.668335
	C588.651917,753.020935 580.227356,752.728577 572.372742,748.766174
	C562.198730,743.633606 558.511353,734.672363 558.130249,724.293213
	C557.611511,710.161804 558.054321,695.996704 557.960510,681.846863
	C557.938843,678.582520 558.876953,677.051025 562.471313,676.932068
	C575.003723,676.517273 574.999817,676.405334 575.000061,688.915588
	C575.000244,700.402405 574.921875,711.890015 575.030151,723.375854
	C575.098083,730.581116 578.118347,735.156128 583.643433,737.039307
	C589.770386,739.127563 596.281189,737.785522 599.652893,732.527893
	C601.668640,729.384705 602.745911,725.147644 602.854431,721.362488
	C603.231323,708.221680 603.159424,695.060364 602.905579,681.913635
	C602.826782,677.830994 604.202881,676.586182 608.051575,676.948486
	C610.856750,677.212524 613.707031,677.020935 616.536865,676.995544
	C622.499023,676.942078 623.803955,675.564636 624.053528,669.713928
	C624.131958,667.876343 624.657776,664.571716 625.299927,664.490906
	C628.860046,664.042969 632.524597,664.307983 636.135864,664.570190
	C636.482544,664.595398 636.951416,666.280884 636.947937,667.194092
	C636.934753,670.675903 636.751221,674.157104 636.470154,678.023071
z"/>
<path fill="#050708" opacity="1.000000" stroke="none"
	d="
M181.811066,677.913269
	C194.702362,683.680176 200.255508,693.726074 199.920288,707.055908
	C199.700760,715.785950 199.902344,724.797546 197.784973,733.142578
	C194.917130,744.445251 186.164948,750.119202 174.616333,752.159668
	C167.788132,753.366089 161.419006,752.703186 155.129166,750.484680
	C143.033218,746.218445 137.466461,736.505737 136.249405,724.660339
	C135.394119,716.336121 136.052658,707.710205 137.148178,699.365173
	C138.888916,686.104919 151.330414,675.850342 164.746826,676.081238
	C170.323502,676.177246 175.884720,677.169922 181.811066,677.913269
M153.000000,711.570496
	C153.111053,718.325928 152.181854,725.206909 155.758102,731.505066
	C159.272324,737.694031 165.018005,738.520996 171.244110,737.958313
	C176.441315,737.488647 180.250702,734.277100 181.080124,729.491089
	C182.367264,722.063843 182.821945,714.423340 182.826797,706.872742
	C182.829132,703.249023 181.621246,699.281921 179.868164,696.066406
	C175.341873,687.764038 161.456528,687.323914 156.948624,695.589111
	C154.542633,700.000305 154.247696,705.562988 153.000000,711.570496
z"/>
<path fill="#050607" opacity="1.000000" stroke="none"
	d="
M351.468414,749.363647
	C359.086517,726.291016 366.645874,703.608704 374.123016,680.899231
	C374.995300,678.249878 376.111542,676.932129 379.295410,676.903564
	C394.691498,676.765808 394.743866,676.630310 399.571869,691.209290
	C405.672119,709.630066 411.679138,728.081604 417.707977,746.526001
	C418.108185,747.750305 418.352295,749.025696 418.843475,750.966980
	C413.297974,750.966980 408.190094,751.127319 403.108490,750.833374
	C402.077087,750.773621 400.706970,749.169128 400.250885,747.984802
	C399.003418,744.746033 397.768982,741.410034 397.259155,738.003357
	C396.666412,734.042480 394.906219,732.544312 390.962891,732.944885
	C388.161957,733.229431 385.308807,733.000000 382.478943,733.000000
	C373.212524,733.000000 373.181061,732.990723 370.535004,741.948120
	C367.400299,752.559631 369.646271,750.900513 358.255127,750.938477
	C355.966492,750.946167 353.675171,750.163818 351.468414,749.363647
z"/>
<path fill="#050708" opacity="1.000000" stroke="none"
	d="
M118.351578,681.632202
	C123.990700,686.022461 126.480095,691.403625 125.777809,698.975342
	C121.431328,698.975342 117.309425,699.214050 113.247902,698.823975
	C112.090355,698.712830 110.603035,696.958191 110.127945,695.645569
	C107.144020,687.401245 93.933289,687.386597 89.039871,691.682739
	C85.036255,695.197632 86.645721,701.626282 92.348808,703.517944
	C98.143356,705.440002 104.278488,706.311096 110.141327,708.056091
	C126.181305,712.830078 129.589874,722.267029 125.849510,737.573853
	C124.395950,743.522339 119.430435,747.195435 113.903008,749.495972
	C101.187775,754.788208 88.731163,754.475769 76.878632,746.921082
	C71.389488,743.422302 69.486092,737.712708 68.277344,731.777100
	C68.128784,731.047607 69.739197,729.222412 70.639450,729.146301
	C74.278328,728.838562 78.009735,728.665039 81.597717,729.189514
	C83.023811,729.397949 84.496246,731.355103 85.379425,732.851501
	C89.053772,739.076904 95.011429,739.362183 101.075462,738.919800
	C105.138870,738.623474 108.749939,737.254272 110.291092,732.660950
	C111.604355,728.746887 110.582047,725.877930 106.926270,724.565308
	C101.805458,722.726624 96.497406,721.381165 91.221420,720.009399
	C82.676369,717.787903 74.476410,715.109741 71.066872,705.743469
	C66.728348,693.825378 73.200546,681.389648 86.360306,677.100769
	C97.485512,673.474915 108.249168,674.389099 118.351578,681.632202
z"/>
<path fill="#050708" opacity="1.000000" stroke="none"
	d="
M694.323730,689.949219
	C695.573914,694.491394 696.604187,698.726990 697.793762,703.617554
	C691.600952,703.617554 686.706360,703.617554 681.531616,703.617554
	C680.114746,697.683105 678.282532,692.137817 671.167664,690.507751
	C665.166748,689.132935 658.581848,690.824707 656.257324,696.444946
	C651.264282,708.517639 650.608765,720.953125 657.026611,732.851074
	C659.765564,737.928650 665.109009,738.403564 670.199097,737.874512
	C675.001343,737.375549 679.029419,734.626221 679.973877,729.898010
	C681.067017,724.426025 683.979248,723.729614 688.727844,723.902710
	C697.844299,724.235046 699.080078,725.719604 695.986450,734.522827
	C692.574524,744.231445 685.186768,749.765015 675.545227,751.469666
	C666.516724,753.065918 657.318909,752.849060 649.064148,747.477905
	C640.300659,741.775818 636.912781,732.981018 636.203308,723.352844
	C635.610168,715.301758 636.062012,707.042053 637.164307,699.027771
	C638.945923,686.073730 651.442932,676.344116 664.582214,675.907593
	C676.926697,675.497437 687.231018,678.676208 694.323730,689.949219
z"/>
<path fill="#050708" opacity="1.000000" stroke="none"
	d="
M335.000000,734.997192
	C334.998383,739.492493 334.907684,743.491333 335.027374,747.483765
	C335.103638,750.027893 334.143188,750.894531 331.556519,751.056152
	C317.995605,751.903625 318.000031,751.973816 318.000000,738.608765
	C317.999969,724.455872 317.840668,710.300049 318.096375,696.151794
	C318.173676,691.876648 316.747589,690.593933 312.685028,690.935486
	C309.047668,691.241211 305.358856,690.876404 301.702820,691.036865
	C298.861969,691.161560 297.912964,690.016052 297.963989,687.238342
	C298.196350,674.584717 296.591187,677.169312 307.711456,677.039368
	C321.695953,676.875854 335.685913,677.133606 349.668945,676.915955
	C353.687805,676.853394 355.264099,677.817566 355.088776,682.132935
	C354.668427,692.479431 356.269775,690.901917 346.418213,690.979187
	C335.000549,691.068726 335.000000,691.000061 335.000000,702.529114
	C335.000000,713.185425 335.000000,723.841736 335.000000,734.997192
z"/>
<path fill="#E92231" opacity="1.000000" stroke="none"
	d="
M266.000336,704.000000
	C266.000336,719.789490 266.000336,735.078979 266.000336,750.683105
	C260.284332,750.683105 254.903442,750.683105 249.196564,750.683105
	C249.196564,731.957886 249.196564,713.364502 249.196564,693.832092
	C243.307877,697.549194 238.055222,700.864868 232.004578,704.684204
	C232.004578,698.887207 231.994583,694.121033 232.016190,689.355103
	C232.019150,688.701843 231.971558,687.616394 232.297150,687.460144
	C239.102371,684.195068 244.062790,677.312683 252.362518,677.026245
	C256.668732,676.877563 260.984283,677.000000 266.000336,677.000000
	C266.000336,685.997803 266.000336,694.748901 266.000336,704.000000
z"/>
<path fill="#050708" opacity="1.000000" stroke="none"
	d="
M438.861603,750.999939
	C428.000000,751.000000 428.000000,751.000000 428.000000,740.453247
	C428.000031,720.989807 428.086823,701.525574 427.925354,682.063477
	C427.893860,678.266113 428.778931,676.836914 432.890228,676.896790
	C443.997101,677.058533 444.000031,676.859863 444.000000,687.818115
	C443.999969,707.281555 443.916779,726.745728 444.073853,746.207886
	C444.103271,749.852539 443.150574,751.599060 438.861603,750.999939
z"/>
<path fill="#050708" opacity="1.000000" stroke="none"
	d="
M161.007660,657.623047
	C168.201523,654.443115 172.728760,655.311829 177.959747,660.437927
	C181.196243,663.609436 184.539307,666.672180 187.592667,670.292725
	C181.815964,670.615967 175.831985,673.029602 171.388153,666.943604
	C169.001617,663.675171 166.392746,665.014160 164.393631,667.385437
	C160.124802,672.448853 154.815979,671.065491 148.051880,670.487122
	C152.850784,665.696167 156.776276,661.777100 161.007660,657.623047
z"/>
<path fill="#050708" opacity="1.000000" stroke="none"
	d="
M382.903687,756.582581
	C388.626617,755.821350 392.062714,757.950195 392.913727,762.399658
	C393.735657,766.697144 391.053619,770.915771 386.890137,771.874207
	C382.911377,772.790161 378.747711,770.236877 377.473694,765.802979
	C376.152710,761.205811 379.211304,758.846313 382.903687,756.582581
z"/>
<path fill="#EA2130" opacity="1.000000" stroke="none"
	d="
M360.516113,74.925888
	C369.867157,62.754776 381.902649,54.804695 396.858887,51.009388
	C417.741058,45.710293 436.794525,49.849663 454.550995,61.398884
	C458.588928,64.025261 462.442902,66.934471 465.952728,69.410927
	C473.299408,64.882889 480.083496,59.945358 487.490662,56.260208
	C532.359802,33.937214 580.349060,61.598953 584.019775,111.528748
	C585.737061,134.886383 580.882202,156.451187 568.547607,176.462921
	C552.387207,202.681534 531.683838,224.985092 509.206299,245.703354
	C496.965424,256.986206 483.965668,267.446564 471.283264,278.248596
	C469.780212,279.528778 468.119324,280.623688 466.324097,281.958801
	C444.673676,265.468933 424.569427,247.518570 405.116638,227.869843
	C388.832184,210.554550 373.794373,193.084778 362.184906,172.893661
	C351.499420,154.309525 347.152008,134.458862 348.677368,113.094498
	C349.657379,99.368195 353.746521,86.772789 360.516113,74.925888
z"/>
<path fill="#C19F65" opacity="1.000000" stroke="none"
	d="
M56.933388,551.000000
	C57.038372,559.660828 56.263016,567.949707 57.427216,575.956543
	C60.047802,593.979492 75.252350,606.022034 94.202675,606.023682
	C267.357880,606.038452 440.513062,606.033020 613.668274,606.033386
	C637.666687,606.033447 661.665161,606.062927 685.663513,606.022461
	C707.248840,605.986084 722.898254,590.387573 722.904419,568.786804
	C722.934753,462.460510 722.931458,356.134216 722.907837,249.807938
	C722.902893,227.683960 707.299866,212.147232 685.010620,212.111633
	C646.513245,212.050125 608.015686,212.093735 569.518250,212.093246
	C567.528564,212.093231 565.538818,212.093246 562.277283,212.093246
	C566.979553,205.489410 571.064209,199.577667 575.409485,193.864090
	C575.975586,193.119720 577.882263,193.224045 579.168213,193.223007
	C614.832520,193.193832 650.499146,192.950134 686.160461,193.278336
	C718.459961,193.575592 741.870422,217.778915 741.874023,250.199234
	C741.885803,356.192230 741.886292,462.185242 741.873779,568.178223
	C741.869934,601.007202 717.981384,624.941223 685.064331,624.945923
	C488.244019,624.973938 291.423706,624.972778 94.603416,624.946838
	C61.780666,624.942505 37.957947,601.324646 37.937889,568.630127
	C37.872654,462.303864 37.875317,355.977509 37.936192,249.651276
	C37.954674,217.370178 61.842533,193.369720 94.097000,193.235153
	C129.594040,193.087067 165.092316,193.245331 200.589554,193.122391
	C203.900238,193.110931 205.712067,194.029831 207.050766,197.128220
	C209.135315,201.952789 211.752182,206.547379 214.578568,212.093231
	C211.809891,212.093231 209.889893,212.093185 207.969879,212.093231
	C169.972397,212.094086 131.974762,212.036362 93.977470,212.121246
	C75.768509,212.161942 61.278782,223.735870 57.594273,241.086044
	C56.945633,244.140457 56.959610,247.372238 56.958649,250.522202
	C56.928078,350.514801 56.933475,450.507385 56.933388,551.000000
z"/>
<path fill="#060809" opacity="1.000000" stroke="none"
	d="
M360.098145,74.879395
	C353.746521,86.772789 349.657379,99.368195 348.677368,113.094498
	C347.152008,134.458862 351.499420,154.309525 362.184906,172.893661
	C373.794373,193.084778 388.832184,210.554550 404.816650,227.724014
	C381.424316,255.651855 354.725067,279.907349 325.570282,302.719116
	C314.436218,293.252686 303.230957,284.114777 292.461731,274.489044
	C269.549530,254.009659 248.156815,232.113464 230.613373,206.698700
	C217.134796,187.172607 208.435013,166.116516 209.188004,141.929367
	C209.766052,123.361732 213.511963,105.781425 226.610245,91.614807
	C244.622604,72.133301 276.926941,66.501106 302.266907,78.733643
	C310.580078,82.746704 318.192871,88.210548 326.556610,93.271545
	C336.189301,85.611435 346.883667,78.317337 360.098145,74.879395
z"/>
<path fill="#090B0C" opacity="1.000000" stroke="none"
	d="
M122.114067,410.564880
	C119.005463,410.564880 116.378998,410.564880 113.514008,410.564880
	C113.514008,365.658478 113.514008,321.294220 113.514008,276.570587
	C115.337112,276.488434 116.954689,276.354340 118.572433,276.352295
	C132.062027,276.335297 145.551697,276.332184 159.041306,276.344757
	C194.143814,276.377411 220.852051,301.605133 223.044235,336.683472
	C224.170624,354.707489 220.833588,371.562225 209.762390,386.207520
	C197.103119,402.953613 179.793823,410.441254 159.068222,410.552856
	C146.911209,410.618347 134.753571,410.564880 122.114067,410.564880
M184.506332,318.066559
	C173.807953,305.185272 159.541824,303.925720 144.508911,305.235291
	C144.508911,331.101379 144.508911,356.467224 144.508911,381.936707
	C149.207993,381.936707 153.559982,382.277924 157.842056,381.875366
	C173.239548,380.427856 184.801041,373.136993 189.918549,358.157410
	C194.612381,344.417938 193.485107,330.943024 184.506332,318.066559
z"/>
<path fill="#08090A" opacity="1.000000" stroke="none"
	d="
M487.993103,413.884644
	C480.843170,412.800629 474.149078,411.725037 467.151093,410.600616
	C467.151093,421.837158 467.151093,433.536926 467.151093,445.585144
	C456.993378,445.585144 446.772430,445.585144 436.531616,445.585144
	C436.531616,424.364227 436.531616,403.132629 436.531616,381.901031
	C436.531616,360.761719 436.531616,339.622406 436.531616,317.766785
	C446.158325,318.652832 456.563782,315.624207 467.956635,320.071198
	C475.292755,314.985474 485.317383,314.072662 495.547119,315.218719
	C504.059082,316.172363 511.352417,320.231781 517.678162,325.949402
	C533.337585,340.103546 539.506042,361.819000 533.056213,379.912415
	C526.174561,399.217255 507.927338,413.117523 487.993103,413.884644
M499.244690,381.813202
	C507.602142,373.780182 509.624603,362.768341 504.495270,353.224823
	C499.787354,344.465271 489.704224,340.007355 479.873840,342.513367
	C470.499756,344.903107 464.984924,351.171448 463.482391,360.538605
	C461.992828,369.824921 464.938660,377.850952 472.994843,383.056030
	C481.520996,388.564789 490.277527,388.067688 499.244690,381.813202
z"/>
<path fill="#080A0B" opacity="1.000000" stroke="none"
	d="
M367.338135,411.781311
	C365.416687,411.110870 363.893738,410.556458 362.388306,410.008423
	C362.388306,421.931519 362.388306,433.545868 362.388306,445.548218
	C352.395203,445.548218 342.031494,445.548218 331.508179,445.548218
	C331.508179,403.173523 331.508179,360.819000 331.508179,318.387238
	C341.204254,316.054199 358.913940,317.439911 362.040100,320.882050
	C385.627289,309.156982 407.856873,314.908112 422.049866,336.407440
	C436.835358,358.804260 433.068237,385.004944 412.664337,402.376923
	C399.376526,413.690186 384.293274,416.184326 367.338135,411.781311
M380.496338,341.900055
	C368.015656,342.635284 359.738831,350.346130 358.710815,362.195801
	C357.729462,373.507477 364.455017,383.441254 374.836487,386.013855
	C388.093719,389.299072 400.097107,381.360596 402.338989,367.824921
	C404.572540,354.339569 395.587250,343.228851 380.496338,341.900055
z"/>
<path fill="#090A0B" opacity="1.000000" stroke="none"
	d="
M259.722473,554.876465
	C250.966293,554.876526 242.678604,554.876526 234.589844,554.876526
	C234.589844,511.374451 234.589844,468.440125 234.589844,424.724091
	C242.875046,424.724091 251.492004,424.509338 260.070068,424.989410
	C261.171967,425.051117 262.862396,428.695740 262.929962,430.725555
	C263.240051,440.043274 263.070526,449.376953 263.072815,458.704926
	C263.073456,461.307404 263.072937,463.909851 263.072937,466.690277
	C267.777710,464.828583 271.927643,462.357544 276.364532,461.625549
	C282.982025,460.533722 289.984497,459.496979 296.499329,460.513184
	C312.372955,462.989136 320.576813,474.453003 320.753815,492.726959
	C320.879669,505.718292 320.778748,518.711792 320.778931,531.704346
	C320.779053,539.179321 320.778961,546.654297 320.778961,554.506348
	C311.618225,554.506348 301.761017,554.506348 292.253143,554.506348
	C292.253143,536.621582 292.265808,518.846741 292.247925,501.071899
	C292.238770,491.948151 286.965637,486.230530 278.539490,486.132416
	C269.864319,486.031403 263.097504,492.744995 263.077881,501.511658
	C263.058105,510.339905 263.073090,519.168213 263.072968,527.996460
	C263.072876,536.638245 263.072937,545.279968 263.072937,554.503662
	C262.613159,554.563171 261.402069,554.719727 259.722473,554.876465
z"/>
<path fill="#080A0B" opacity="1.000000" stroke="none"
	d="
M315.165771,395.140259
	C293.664276,420.375824 251.376984,418.676605 233.285004,389.475800
	C222.075439,371.383362 223.953918,347.248077 237.674622,331.175629
	C251.701065,314.745056 275.805481,309.319458 296.501831,317.934448
	C316.374268,326.206451 328.016754,345.693237 326.269958,367.477142
	C325.445312,377.761200 321.884033,386.872742 315.165771,395.140259
M263.949097,382.688629
	C264.811768,383.189728 265.646851,383.747467 266.541351,384.183136
	C275.488831,388.541382 285.985229,386.497589 292.512482,379.146637
	C299.305298,371.496582 300.216797,359.063446 294.628479,350.283600
	C289.318146,341.940460 279.173859,338.035797 269.828857,341.088776
	C261.541626,343.796143 256.528687,349.707214 254.818832,358.224518
	C252.881622,367.874390 255.670425,375.959229 263.949097,382.688629
z"/>
<path fill="#080A0B" opacity="1.000000" stroke="none"
	d="
M351.270630,549.777466
	C330.972900,536.027527 322.928101,514.841553 329.771606,493.772522
	C336.884430,471.874329 357.253082,457.236023 379.743042,458.203369
	C399.220612,459.041107 413.435028,468.186707 422.317108,486.342468
	C405.269623,499.865112 388.264771,513.353943 370.393921,527.529724
	C381.147461,534.939148 388.973083,528.711304 397.236023,523.471313
	C402.610382,529.736938 407.866547,535.864807 413.092743,541.957703
	C396.984619,559.070923 372.879028,562.100403 351.270630,549.777466
M384.769257,487.782318
	C383.771210,486.533264 383.028625,484.708893 381.731659,484.133087
	C375.580841,481.402252 367.621124,483.593170 362.199768,489.159485
	C356.755219,494.749634 355.421753,501.850769 358.752533,509.155396
	C367.287537,502.133240 375.723541,495.192535 384.769257,487.782318
z"/>
<path fill="#080A0B" opacity="1.000000" stroke="none"
	d="
M619.285706,353.276062
	C606.783569,363.186340 594.557068,372.871429 582.337097,382.551300
	C587.458984,389.116241 590.713440,388.696167 608.527466,379.451965
	C613.663147,385.386597 618.865906,391.398651 624.043945,397.382263
	C614.061462,411.545105 589.768066,417.126953 570.731628,409.742706
	C549.346252,401.447327 536.156433,379.766205 538.958191,357.514496
	C541.708557,335.671356 561.120972,316.612549 583.132690,314.144531
	C605.179565,311.672577 625.775452,323.170837 633.078857,342.339600
	C628.642395,345.855042 624.101807,349.452972 619.285706,353.276062
M580.009094,356.501190
	C585.626038,351.887970 591.242920,347.274750 596.861206,342.660370
	C592.099915,337.137604 581.992615,337.671692 575.159424,343.155029
	C568.413757,348.568115 566.202026,356.885101 569.808228,364.762482
	C573.083313,362.115509 576.273193,359.537415 580.009094,356.501190
z"/>
<path fill="#090A0B" opacity="1.000000" stroke="none"
	d="
M486.097290,474.992432
	C486.097290,470.517487 486.097290,466.537048 486.097290,462.174377
	C512.545288,462.174377 538.767090,462.174377 565.956421,462.174377
	C551.452881,484.490112 537.147949,506.500214 522.348633,529.270996
	C536.723328,529.270996 550.123047,529.270996 563.805725,529.270996
	C563.805725,537.941956 563.805725,546.161316 563.805725,554.629517
	C534.350708,554.629517 505.083130,554.629517 474.853973,554.629517
	C488.383026,532.188293 501.704346,510.091705 515.441895,487.304749
	C505.419678,487.304749 496.075562,487.304749 486.097290,487.304749
	C486.097290,483.024994 486.097290,479.255981 486.097290,474.992432
z"/>
<path fill="#080A0B" opacity="1.000000" stroke="none"
	d="
M667.103882,401.667419
	C667.392822,404.763031 667.670898,407.394348 667.986145,410.377380
	C657.973694,410.377380 648.244751,410.377380 638.455566,410.377380
	C638.455566,367.046570 638.455566,323.819977 638.455566,280.070740
	C646.764099,280.070740 655.224365,279.979828 663.677124,280.190308
	C664.688965,280.215546 666.192322,281.715912 666.530518,282.819763
	C667.098022,284.671692 667.023621,286.754517 667.025757,288.740417
	C667.065125,326.227966 667.076111,363.715546 667.103882,401.667419
z"/>
<path fill="#080A0B" opacity="1.000000" stroke="none"
	d="
M456.938843,543.887939
	C457.143097,547.678650 457.346130,550.987366 457.563873,554.535706
	C456.386902,554.652222 455.262024,554.856628 454.136475,554.860168
	C445.522217,554.887146 436.907837,554.874939 428.366058,554.874939
	C428.366058,523.709106 428.366058,493.019867 428.366058,461.324310
	C435.096680,461.324310 442.065521,460.930481 448.943024,461.550262
	C451.175934,461.751495 453.169861,464.604706 454.462555,465.612823
	C462.595520,463.597290 470.457855,461.648804 478.915833,459.552704
	C478.915833,470.379517 478.915833,479.900970 478.915833,489.833466
	C476.692444,489.553619 474.937164,489.281708 473.171814,489.118988
	C463.213135,488.201019 457.145477,493.417114 457.001190,503.473877
	C456.810272,516.782104 456.943604,530.094971 456.938843,543.887939
z"/>
<path fill="#1C1D1E" opacity="1.000000" stroke="none"
	d="
M583.269897,457.737213
	C583.622803,443.636169 592.885437,434.223785 605.675415,434.514923
	C617.822327,434.791504 627.160095,444.230560 627.155701,456.228302
	C627.151550,467.450958 618.926453,476.601471 607.684937,477.889618
	C596.556091,479.164795 586.384277,472.005859 583.852173,461.103424
	C583.626648,460.132080 583.482544,459.141815 583.269897,457.737213
M621.292603,464.480927
	C624.689087,457.319183 624.124268,450.476288 618.901306,444.505188
	C614.014465,438.918243 607.647888,436.966949 600.392273,438.967285
	C593.356201,440.907104 589.019653,445.625031 587.444031,452.726044
	C585.649841,460.812164 590.233093,469.374390 597.971741,472.707733
	C606.382751,476.330719 614.955627,473.520325 621.292603,464.480927
z"/>
<!--<path fill="#000000" opacity="1.000000" stroke="none"-->
<!--	d="-->
<!--M512.751343,736.999695-->
<!--	C502.996216,736.999939 502.996216,736.999939 503.000000,727.874939-->
<!--	C503.002838,721.018799 503.020081,720.711426 510.048492,721.105713-->
<!--	C514.901672,721.378113 516.780457,719.780090 516.022400,715.007080-->
<!--	C515.867920,714.034546 515.893127,713.002747 516.018372,712.021667-->
<!--	C516.586243,707.575256 514.979187,705.324280 510.218109,705.976685-->
<!--	C509.076385,706.133118 507.886383,705.908386 506.733185,706.015808-->
<!--	C503.937683,706.276184 502.740692,705.092529 502.979614,702.281799-->
<!--	C503.105835,700.796936 503.000122,699.292419 503.000153,697.796814-->
<!--	C503.000244,689.313049 503.091919,689.213135 511.622559,690.025024-->
<!--	C523.693665,691.173767 529.506470,696.795715 529.981506,709.642151-->
<!--	C530.114319,713.233704 530.233459,716.852905 529.950317,720.427063-->
<!--	C529.359253,727.887939 525.857117,736.704651 512.751343,736.999695-->
<!--z"/>-->
<!--<path fill="#000000" opacity="1.000000" stroke="none"-->
<!--	d="-->
<!--M153.000000,711.088257-->
<!--	C154.247696,705.562988 154.542633,700.000305 156.948624,695.589111-->
<!--	C161.456528,687.323914 175.341873,687.764038 179.868164,696.066406-->
<!--	C181.621246,699.281921 182.829132,703.249023 182.826797,706.872742-->
<!--	C182.821945,714.423340 182.367264,722.063843 181.080124,729.491089-->
<!--	C180.250702,734.277100 176.441315,737.488647 171.244110,737.958313-->
<!--	C165.018005,738.520996 159.272324,737.694031 155.758102,731.505066-->
<!--	C152.181854,725.206909 153.111053,718.325928 153.000000,711.088257-->
<!--z"/>-->
<path fill="#FCFCFC" opacity="1.000000" stroke="none"
	d="
M184.730286,318.349823
	C193.485107,330.943024 194.612381,344.417938 189.918549,358.157410
	C184.801041,373.136993 173.239548,380.427856 157.842056,381.875366
	C153.559982,382.277924 149.207993,381.936707 144.508911,381.936707
	C144.508911,356.467224 144.508911,331.101379 144.508911,305.235291
	C159.541824,303.925720 173.807953,305.185272 184.730286,318.349823
z"/>
<path fill="#FBFBFB" opacity="1.000000" stroke="none"
	d="
M498.952759,382.033752
	C490.277527,388.067688 481.520996,388.564789 472.994843,383.056030
	C464.938660,377.850952 461.992828,369.824921 463.482391,360.538605
	C464.984924,351.171448 470.499756,344.903107 479.873840,342.513367
	C489.704224,340.007355 499.787354,344.465271 504.495270,353.224823
	C509.624603,362.768341 507.602142,373.780182 498.952759,382.033752
z"/>
<path fill="#FBFBFB" opacity="1.000000" stroke="none"
	d="
M380.936859,341.902466
	C395.587250,343.228851 404.572540,354.339569 402.338989,367.824921
	C400.097107,381.360596 388.093719,389.299072 374.836487,386.013855
	C364.455017,383.441254 357.729462,373.507477 358.710815,362.195801
	C359.738831,350.346130 368.015656,342.635284 380.936859,341.902466
z"/>
<path fill="#FBFBFB" opacity="1.000000" stroke="none"
	d="
M263.659729,382.462250
	C255.670425,375.959229 252.881622,367.874390 254.818832,358.224518
	C256.528687,349.707214 261.541626,343.796143 269.828857,341.088776
	C279.173859,338.035797 289.318146,341.940460 294.628479,350.283600
	C300.216797,359.063446 299.305298,371.496582 292.512482,379.146637
	C285.985229,386.497589 275.488831,388.541382 266.541351,384.183136
	C265.646851,383.747467 264.811768,383.189728 263.659729,382.462250
z"/>
<path fill="#F5F5F5" opacity="1.000000" stroke="none"
	d="
M384.464417,488.017059
	C375.723541,495.192535 367.287537,502.133240 358.752533,509.155396
	C355.421753,501.850769 356.755219,494.749634 362.199768,489.159485
	C367.621124,483.593170 375.580841,481.402252 381.731659,484.133087
	C383.028625,484.708893 383.771210,486.533264 384.464417,488.017059
z"/>
<path fill="#F6F6F6" opacity="1.000000" stroke="none"
	d="
M579.736084,356.730255
	C576.273193,359.537415 573.083313,362.115509 569.808228,364.762482
	C566.202026,356.885101 568.413757,348.568115 575.159424,343.155029
	C581.992615,337.671692 592.099915,337.137604 596.861206,342.660370
	C591.242920,347.274750 585.626038,351.887970 579.736084,356.730255
z"/>
<path fill="#F1F1F1" opacity="1.000000" stroke="none"
	d="
M621.124878,464.826782
	C614.955627,473.520325 606.382751,476.330719 597.971741,472.707733
	C590.233093,469.374390 585.649841,460.812164 587.444031,452.726044
	C589.019653,445.625031 593.356201,440.907104 600.392273,438.967285
	C607.647888,436.966949 614.014465,438.918243 618.901306,444.505188
	C624.124268,450.476288 624.689087,457.319183 621.124878,464.826782
M596.793823,446.703918
	C596.792969,452.687592 596.694397,458.674103 596.866028,464.652832
	C596.904602,465.997345 597.886536,467.314819 598.434204,468.644775
	C599.097168,467.244171 600.123108,465.896790 600.338257,464.430481
	C600.663269,462.215027 600.423096,459.916656 600.423096,457.653503
	C600.856873,457.345032 601.290649,457.036560 601.724487,456.728088
	C603.226929,457.776703 605.059204,458.562958 606.152283,459.937164
	C607.682495,461.861145 608.447876,464.388702 609.954773,466.337769
	C610.910645,467.574127 612.619263,468.228516 613.990295,469.143890
	C614.297424,468.769409 614.604614,468.394958 614.911804,468.020477
	C614.090271,466.442444 613.272217,464.862610 612.446289,463.286896
	C611.533569,461.545532 610.613525,459.807983 609.701965,458.078827
	C615.379456,454.873932 617.147583,450.062256 614.144043,446.521515
	C611.526123,443.435394 600.211731,442.928253 596.793823,446.703918
z"/>
<path fill="#18191A" opacity="1.000000" stroke="none"
	d="
M596.805298,446.224396
	C600.211731,442.928253 611.526123,443.435394 614.144043,446.521515
	C617.147583,450.062256 615.379456,454.873932 609.701965,458.078827
	C610.613525,459.807983 611.533569,461.545532 612.446289,463.286896
	C613.272217,464.862610 614.090271,466.442444 614.911804,468.020477
	C614.604614,468.394958 614.297424,468.769409 613.990295,469.143890
	C612.619263,468.228516 610.910645,467.574127 609.954773,466.337769
	C608.447876,464.388702 607.682495,461.861145 606.152283,459.937164
	C605.059204,458.562958 603.226929,457.776703 601.724487,456.728088
	C601.290649,457.036560 600.856873,457.345032 600.423096,457.653503
	C600.423096,459.916656 600.663269,462.215027 600.338257,464.430481
	C600.123108,465.896790 599.097168,467.244171 598.434204,468.644775
	C597.886536,467.314819 596.904602,465.997345 596.866028,464.652832
	C596.694397,458.674103 596.792969,452.687592 596.805298,446.224396
M610.485840,448.475128
	C607.280090,448.229309 604.074341,447.983459 600.728638,447.726898
	C600.728638,450.117523 600.728638,451.817017 600.728638,453.744171
	C603.529907,453.744171 606.008057,453.980530 608.419373,453.680359
	C611.042175,453.353912 612.952942,452.161713 610.485840,448.475128
z"/>
<path fill="#E3E2E3" opacity="1.000000" stroke="none"
	d="
M610.786865,448.756165
	C612.952942,452.161713 611.042175,453.353912 608.419373,453.680359
	C606.008057,453.980530 603.529907,453.744171 600.728638,453.744171
	C600.728638,451.817017 600.728638,450.117523 600.728638,447.726898
	C604.074341,447.983459 607.280090,448.229309 610.786865,448.756165
z"/>
</svg>
